<?xml version="1.0" encoding="UTF-8" standalone="no"?>
<!DOCTYPE svg PUBLIC "-//W3C//DTD SVG 1.1//EN"
 "http://www.w3.org/Graphics/SVG/1.1/DTD/svg11.dtd">
<!-- Generated by graphviz version 5.0.0 (20220707.1540)
 -->
<!-- Title: dependencies Pages: 1 -->
<svg width="142pt" height="247pt"
 viewBox="0.00 0.00 142.00 246.80" xmlns="http://www.w3.org/2000/svg" xmlns:xlink="http://www.w3.org/1999/xlink">
<g id="graph0" class="graph" transform="scale(1 1) rotate(0) translate(4 242.8)">
<title>dependencies</title>
<polygon fill="white" stroke="transparent" points="-4,4 -4,-242.8 138,-242.8 138,4 -4,4"/>
<text text-anchor="middle" x="67" y="-8.2" font-family="sans-serif" font-size="14.00">dependencies</text>
<g id="clust1" class="cluster">
<title>cluster_SharedModule</title>
<polygon fill="none" stroke="black" stroke-dasharray="1,5" points="8,-32.8 8,-230.8 126,-230.8 126,-32.8 8,-32.8"/>
</g>
<g id="clust4" class="cluster">
<title>cluster_SharedModule_exports</title>
<polygon fill="none" stroke="black" points="16,-170.8 16,-222.8 118,-222.8 118,-170.8 16,-170.8"/>
</g>
<g id="clust3" class="cluster">
<title>cluster_SharedModule_imports</title>
<polygon fill="none" stroke="black" points="18,-40.8 18,-92.8 116,-92.8 116,-40.8 18,-40.8"/>
</g>
<!-- FireModule -->
<g id="node1" class="node">
<title>FireModule</title>
<polygon fill="#8dd3c7" stroke="black" points="108.1,-84.8 105.1,-88.8 84.1,-88.8 81.1,-84.8 25.9,-84.8 25.9,-48.8 108.1,-48.8 108.1,-84.8"/>
<text text-anchor="middle" x="67" y="-62.6" font-family="Times,serif" font-size="14.00">FireModule</text>
</g>
<!-- SharedModule -->
<g id="node2" class="node">
<title>SharedModule</title>
<polygon fill="#8dd3c7" stroke="black" points="116.43,-149.8 113.43,-153.8 92.43,-153.8 89.43,-149.8 17.57,-149.8 17.57,-113.8 116.43,-113.8 116.43,-149.8"/>
<text text-anchor="middle" x="67" y="-127.6" font-family="Times,serif" font-size="14.00">SharedModule</text>
</g>
<!-- FireModule&#45;&gt;SharedModule -->
<g id="edge1" class="edge">
<title>FireModule&#45;&gt;SharedModule</title>
<path fill="none" stroke="black" d="M67,-84.91C67,-84.91 67,-103.79 67,-103.79"/>
<polygon fill="black" stroke="black" points="63.5,-103.79 67,-113.79 70.5,-103.79 63.5,-103.79"/>
</g>
<!-- FireModule  -->
<g id="node3" class="node">
<title>FireModule </title>
<polygon fill="#fb8072" stroke="black" points="109.6,-214.8 24.4,-214.8 24.4,-178.8 109.6,-178.8 109.6,-214.8"/>
<text text-anchor="middle" x="67" y="-192.6" font-family="Times,serif" font-size="14.00">FireModule </text>
</g>
<!-- SharedModule&#45;&gt;FireModule  -->
<g id="edge2" class="edge">
<title>SharedModule&#45;&gt;FireModule </title>
<path fill="none" stroke="black" stroke-dasharray="5,2" d="M67,-149.91C67,-149.91 67,-168.79 67,-168.79"/>
<polygon fill="black" stroke="black" points="63.5,-168.79 67,-178.79 70.5,-168.79 63.5,-168.79"/>
</g>
</g>
</svg>
