<?xml version="1.0" encoding="UTF-8" standalone="no"?>
<!DOCTYPE svg PUBLIC "-//W3C//DTD SVG 1.1//EN"
 "http://www.w3.org/Graphics/SVG/1.1/DTD/svg11.dtd">
<!-- Generated by graphviz version 5.0.0 (20220707.1540)
 -->
<!-- Title: dependencies Pages: 1 -->
<svg width="188pt" height="174pt"
 viewBox="0.00 0.00 188.00 173.80" xmlns="http://www.w3.org/2000/svg" xmlns:xlink="http://www.w3.org/1999/xlink">
<g id="graph0" class="graph" transform="scale(1 1) rotate(0) translate(4 169.8)">
<title>dependencies</title>
<polygon fill="white" stroke="transparent" points="-4,4 -4,-169.8 184,-169.8 184,4 -4,4"/>
<text text-anchor="middle" x="90" y="-8.2" font-family="sans-serif" font-size="14.00">dependencies</text>
<g id="clust1" class="cluster">
<title>cluster_PagesModule</title>
<polygon fill="none" stroke="black" stroke-dasharray="1,5" points="8,-32.8 8,-157.8 172,-157.8 172,-32.8 8,-32.8"/>
</g>
<g id="clust2" class="cluster">
<title>cluster_PagesModule_declarations</title>
<polygon fill="none" stroke="black" points="16,-40.8 16,-92.8 164,-92.8 164,-40.8 16,-40.8"/>
</g>
<!-- AppPageComponent -->
<g id="node1" class="node">
<title>AppPageComponent</title>
<polygon fill="#ffffb3" stroke="black" points="156.16,-84.8 23.84,-84.8 23.84,-48.8 156.16,-48.8 156.16,-84.8"/>
<text text-anchor="middle" x="90" y="-62.6" font-family="Times,serif" font-size="14.00">AppPageComponent</text>
</g>
<!-- PagesModule -->
<g id="node2" class="node">
<title>PagesModule</title>
<polygon fill="#8dd3c7" stroke="black" points="136.21,-149.8 133.21,-153.8 112.21,-153.8 109.21,-149.8 43.79,-149.8 43.79,-113.8 136.21,-113.8 136.21,-149.8"/>
<text text-anchor="middle" x="90" y="-127.6" font-family="Times,serif" font-size="14.00">PagesModule</text>
</g>
<!-- AppPageComponent&#45;&gt;PagesModule -->
<g id="edge1" class="edge">
<title>AppPageComponent&#45;&gt;PagesModule</title>
<path fill="none" stroke="black" d="M90,-84.91C90,-84.91 90,-103.79 90,-103.79"/>
<polygon fill="black" stroke="black" points="86.5,-103.79 90,-113.79 93.5,-103.79 86.5,-103.79"/>
</g>
</g>
</svg>
