<?xml version="1.0" encoding="UTF-8" standalone="no"?>
<!DOCTYPE svg PUBLIC "-//W3C//DTD SVG 1.1//EN"
 "http://www.w3.org/Graphics/SVG/1.1/DTD/svg11.dtd">
<!-- Generated by graphviz version 5.0.0 (20220707.1540)
 -->
<!-- Title: dependencies Pages: 1 -->
<svg width="2628pt" height="326pt"
 viewBox="0.00 0.00 2628.00 325.80" xmlns="http://www.w3.org/2000/svg" xmlns:xlink="http://www.w3.org/1999/xlink">
<g id="graph0" class="graph" transform="scale(1 1) rotate(0) translate(4 321.8)">
<title>dependencies</title>
<polygon fill="white" stroke="transparent" points="-4,4 -4,-321.8 2624,-321.8 2624,4 -4,4"/>
<text text-anchor="middle" x="1310" y="-8.2" font-family="sans-serif" font-size="14.00">dependencies</text>
<g id="clust1" class="cluster">
<title>cluster_ActivitiesModule</title>
<polygon fill="none" stroke="black" stroke-dasharray="1,5" points="260,-32.8 260,-241.8 572,-241.8 572,-32.8 260,-32.8"/>
</g>
<g id="clust3" class="cluster">
<title>cluster_ActivitiesModule_imports</title>
<polygon fill="none" stroke="black" points="268,-40.8 268,-92.8 384,-92.8 384,-40.8 268,-40.8"/>
</g>
<g id="clust4" class="cluster">
<title>cluster_ActivitiesModule_exports</title>
<polygon fill="none" stroke="black" points="326,-181.8 326,-233.8 428,-233.8 428,-181.8 326,-181.8"/>
</g>
<g id="clust6" class="cluster">
<title>cluster_ActivitiesModule_providers</title>
<polygon fill="none" stroke="black" points="392,-40.8 392,-92.8 564,-92.8 564,-40.8 392,-40.8"/>
</g>
<g id="clust7" class="cluster">
<title>cluster_ActivitiesPageModule</title>
<polygon fill="none" stroke="black" stroke-dasharray="1,5" points="580,-108.8 580,-233.8 1179,-233.8 1179,-108.8 580,-108.8"/>
</g>
<g id="clust8" class="cluster">
<title>cluster_ActivitiesPageModule_declarations</title>
<polygon fill="none" stroke="black" points="772,-116.8 772,-168.8 1171,-168.8 1171,-116.8 772,-116.8"/>
</g>
<g id="clust11" class="cluster">
<title>cluster_ActivitiesPageModule_imports</title>
<polygon fill="none" stroke="black" points="588,-116.8 588,-168.8 764,-168.8 764,-116.8 588,-116.8"/>
</g>
<g id="clust21" class="cluster">
<title>cluster_AppModule</title>
<polygon fill="none" stroke="black" stroke-dasharray="1,5" points="1187,-108.8 1187,-309.8 1545,-309.8 1545,-108.8 1187,-108.8"/>
</g>
<g id="clust22" class="cluster">
<title>cluster_AppModule_declarations</title>
<polygon fill="none" stroke="black" points="1415,-116.8 1415,-168.8 1537,-168.8 1537,-116.8 1415,-116.8"/>
</g>
<g id="clust24" class="cluster">
<title>cluster_AppModule_imports</title>
<polygon fill="none" stroke="black" points="1195,-116.8 1195,-168.8 1407,-168.8 1407,-116.8 1195,-116.8"/>
</g>
<g id="clust26" class="cluster">
<title>cluster_AppModule_bootstrap</title>
<polygon fill="none" stroke="black" points="1291,-249.8 1291,-301.8 1415,-301.8 1415,-249.8 1291,-249.8"/>
</g>
<g id="clust28" class="cluster">
<title>cluster_AuthModule</title>
<polygon fill="none" stroke="black" stroke-dasharray="1,5" points="1553,-32.8 1553,-168.8 1733,-168.8 1733,-32.8 1553,-32.8"/>
</g>
<g id="clust29" class="cluster">
<title>cluster_AuthModule_declarations</title>
<polygon fill="none" stroke="black" points="1561,-40.8 1561,-92.8 1725,-92.8 1725,-40.8 1561,-40.8"/>
</g>
<g id="clust35" class="cluster">
<title>cluster_AuthPageModule</title>
<polygon fill="none" stroke="black" stroke-dasharray="1,5" points="1741,-108.8 1741,-233.8 2612,-233.8 2612,-108.8 1741,-108.8"/>
</g>
<g id="clust36" class="cluster">
<title>cluster_AuthPageModule_declarations</title>
<polygon fill="none" stroke="black" points="1905,-116.8 1905,-168.8 2604,-168.8 2604,-116.8 1905,-116.8"/>
</g>
<g id="clust41" class="cluster">
<title>cluster_AuthPageModule_imports</title>
<polygon fill="none" stroke="black" points="1749,-116.8 1749,-168.8 1897,-168.8 1897,-116.8 1749,-116.8"/>
</g>
<g id="clust75" class="cluster">
<title>cluster_MaterialModule</title>
<polygon fill="none" stroke="black" stroke-dasharray="1,5" points="8,-116.8 8,-168.8 130,-168.8 130,-116.8 8,-116.8"/>
</g>
<g id="clust81" class="cluster">
<title>cluster_PagesModule</title>
<polygon fill="none" stroke="black" stroke-dasharray="1,5" points="1271,-32.8 1271,-100.8 1435,-100.8 1435,-32.8 1271,-32.8"/>
</g>
<g id="clust82" class="cluster">
<title>cluster_PagesModule_declarations</title>
<polygon fill="none" stroke="black" points="1279,-40.8 1279,-92.8 1427,-92.8 1427,-40.8 1279,-40.8"/>
</g>
<g id="clust88" class="cluster">
<title>cluster_SharedModule</title>
<polygon fill="none" stroke="black" stroke-dasharray="1,5" points="138,-116.8 138,-168.8 252,-168.8 252,-116.8 138,-116.8"/>
</g>
<!-- FireModule -->
<g id="node1" class="node">
<title>FireModule</title>
<polygon fill="#8dd3c7" stroke="black" points="358.1,-84.8 355.1,-88.8 334.1,-88.8 331.1,-84.8 275.9,-84.8 275.9,-48.8 358.1,-48.8 358.1,-84.8"/>
<text text-anchor="middle" x="317" y="-62.6" font-family="Times,serif" font-size="14.00">FireModule</text>
</g>
<!-- FireModule&#45;&gt;FireModule -->
<g id="edge23" class="edge">
<title>FireModule&#45;&gt;FireModule</title>
<path fill="none" stroke="black" d="M317,-48.38C317,-39.52 317,-30.8 317,-30.8 317,-30.8 378.53,-30.8 378.53,-30.8 378.53,-30.8 378.53,-94.8 378.53,-94.8 378.53,-94.8 354.64,-94.8 354.64,-94.8 354.64,-94.8 354.64,-93.82 354.64,-93.82"/>
<polygon fill="black" stroke="black" points="358.14,-95.01 354.64,-85.01 351.14,-95.01 358.14,-95.01"/>
</g>
<!-- ActivitiesModule -->
<g id="node2" class="node">
<title>ActivitiesModule</title>
<polygon fill="#8dd3c7" stroke="black" points="512.99,-160.8 509.99,-164.8 488.99,-164.8 485.99,-160.8 399.01,-160.8 399.01,-124.8 512.99,-124.8 512.99,-160.8"/>
<text text-anchor="middle" x="456" y="-138.6" font-family="Times,serif" font-size="14.00">ActivitiesModule</text>
</g>
<!-- FireModule&#45;&gt;ActivitiesModule -->
<g id="edge1" class="edge">
<title>FireModule&#45;&gt;ActivitiesModule</title>
<path fill="none" stroke="black" d="M351.24,-85.11C351.24,-104.95 351.24,-133.8 351.24,-133.8 351.24,-133.8 388.71,-133.8 388.71,-133.8"/>
<polygon fill="black" stroke="black" points="388.71,-137.3 398.71,-133.8 388.71,-130.3 388.71,-137.3"/>
</g>
<!-- FireModule  -->
<g id="node3" class="node">
<title>FireModule </title>
<polygon fill="#fb8072" stroke="black" points="419.6,-225.8 334.4,-225.8 334.4,-189.8 419.6,-189.8 419.6,-225.8"/>
<text text-anchor="middle" x="377" y="-203.6" font-family="Times,serif" font-size="14.00">FireModule </text>
</g>
<!-- FireModule&#45;&gt;FireModule  -->
<g id="edge24" class="edge">
<title>FireModule&#45;&gt;FireModule </title>
<path fill="none" stroke="black" stroke-dasharray="5,2" d="M347.83,-84.94C347.83,-84.94 347.83,-179.73 347.83,-179.73"/>
<polygon fill="black" stroke="black" points="344.33,-179.72 347.83,-189.73 351.33,-179.73 344.33,-179.72"/>
</g>
<!-- CoreModule -->
<g id="node11" class="node">
<title>CoreModule</title>
<polygon fill="#8dd3c7" stroke="black" points="1289.27,-160.8 1286.27,-164.8 1265.27,-164.8 1262.27,-160.8 1202.73,-160.8 1202.73,-124.8 1289.27,-124.8 1289.27,-160.8"/>
<text text-anchor="middle" x="1246" y="-138.6" font-family="Times,serif" font-size="14.00">CoreModule</text>
</g>
<!-- FireModule&#45;&gt;CoreModule -->
<g id="edge21" class="edge">
<title>FireModule&#45;&gt;CoreModule</title>
<path fill="none" stroke="black" d="M337.61,-84.95C337.61,-98.54 337.61,-114.8 337.61,-114.8 337.61,-114.8 1244.64,-114.8 1244.64,-114.8 1244.64,-114.8 1244.64,-115.78 1244.64,-115.78"/>
<polygon fill="black" stroke="black" points="1241.14,-114.59 1244.64,-124.59 1248.14,-114.59 1241.14,-114.59"/>
</g>
<!-- AuthModule -->
<g id="node15" class="node">
<title>AuthModule</title>
<polygon fill="#8dd3c7" stroke="black" points="1667.55,-160.8 1664.55,-164.8 1643.55,-164.8 1640.55,-160.8 1580.45,-160.8 1580.45,-124.8 1667.55,-124.8 1667.55,-160.8"/>
<text text-anchor="middle" x="1624" y="-138.6" font-family="Times,serif" font-size="14.00">AuthModule</text>
</g>
<!-- FireModule&#45;&gt;AuthModule -->
<g id="edge13" class="edge">
<title>FireModule&#45;&gt;AuthModule</title>
<path fill="none" stroke="black" d="M341.01,-84.91C341.01,-94.7 341.01,-104.8 341.01,-104.8 341.01,-104.8 1609.41,-104.8 1609.41,-104.8 1609.41,-104.8 1609.41,-114.69 1609.41,-114.69"/>
<polygon fill="black" stroke="black" points="1605.91,-114.69 1609.41,-124.69 1612.91,-114.69 1605.91,-114.69"/>
</g>
<!-- MaterialModule -->
<g id="node22" class="node">
<title>MaterialModule</title>
<polygon fill="#8dd3c7" stroke="black" points="122.47,-160.8 119.47,-164.8 98.47,-164.8 95.47,-160.8 15.53,-160.8 15.53,-124.8 122.47,-124.8 122.47,-160.8"/>
<text text-anchor="middle" x="69" y="-138.6" font-family="Times,serif" font-size="14.00">MaterialModule</text>
</g>
<!-- FireModule&#45;&gt;MaterialModule -->
<g id="edge25" class="edge">
<title>FireModule&#45;&gt;MaterialModule</title>
<path fill="none" stroke="black" d="M275.77,-66.8C205.25,-66.8 69,-66.8 69,-66.8 69,-66.8 69,-114.79 69,-114.79"/>
<polygon fill="black" stroke="black" points="65.5,-114.79 69,-124.79 72.5,-114.79 65.5,-114.79"/>
</g>
<!-- SharedModule -->
<g id="node24" class="node">
<title>SharedModule</title>
<polygon fill="#8dd3c7" stroke="black" points="244.43,-160.8 241.43,-164.8 220.43,-164.8 217.43,-160.8 145.57,-160.8 145.57,-124.8 244.43,-124.8 244.43,-160.8"/>
<text text-anchor="middle" x="195" y="-138.6" font-family="Times,serif" font-size="14.00">SharedModule</text>
</g>
<!-- FireModule&#45;&gt;SharedModule -->
<g id="edge28" class="edge">
<title>FireModule&#45;&gt;SharedModule</title>
<path fill="none" stroke="black" d="M305.07,-84.81C305.07,-107.29 305.07,-142.8 305.07,-142.8 305.07,-142.8 254.24,-142.8 254.24,-142.8"/>
<polygon fill="black" stroke="black" points="254.24,-139.3 244.24,-142.8 254.24,-146.3 254.24,-139.3"/>
</g>
<!-- ActivitiesModule&#45;&gt;FireModule  -->
<g id="edge2" class="edge">
<title>ActivitiesModule&#45;&gt;FireModule </title>
<path fill="none" stroke="black" stroke-dasharray="5,2" d="M404.21,-160.91C404.21,-160.91 404.21,-179.79 404.21,-179.79"/>
<polygon fill="black" stroke="black" points="400.71,-179.79 404.21,-189.79 407.71,-179.79 400.71,-179.79"/>
</g>
<!-- ActivitiesPageModule -->
<g id="node7" class="node">
<title>ActivitiesPageModule</title>
<polygon fill="#8dd3c7" stroke="black" points="838.7,-225.8 835.7,-229.8 814.7,-229.8 811.7,-225.8 697.3,-225.8 697.3,-189.8 838.7,-189.8 838.7,-225.8"/>
<text text-anchor="middle" x="768" y="-203.6" font-family="Times,serif" font-size="14.00">ActivitiesPageModule</text>
</g>
<!-- ActivitiesModule&#45;&gt;ActivitiesPageModule -->
<g id="edge6" class="edge">
<title>ActivitiesModule&#45;&gt;ActivitiesPageModule</title>
<path fill="none" stroke="black" d="M466.4,-160.91C466.4,-180.14 466.4,-207.8 466.4,-207.8 466.4,-207.8 687.29,-207.8 687.29,-207.8"/>
<polygon fill="black" stroke="black" points="687.29,-211.3 697.29,-207.8 687.29,-204.3 687.29,-211.3"/>
</g>
<!-- ActivitiesService -->
<g id="node4" class="node">
<title>ActivitiesService</title>
<ellipse fill="#fdb462" stroke="black" cx="478" cy="-66.8" rx="77.58" ry="18"/>
<text text-anchor="middle" x="478" y="-62.6" font-family="Times,serif" font-size="14.00">ActivitiesService</text>
</g>
<!-- ActivitiesService&#45;&gt;ActivitiesModule -->
<g id="edge3" class="edge">
<title>ActivitiesService&#45;&gt;ActivitiesModule</title>
<path fill="none" stroke="black" d="M456.73,-84.43C456.73,-84.43 456.73,-114.74 456.73,-114.74"/>
<polygon fill="black" stroke="black" points="453.23,-114.74 456.73,-124.74 460.23,-114.74 453.23,-114.74"/>
</g>
<!-- ActivitiesDetailsPageComponent -->
<g id="node5" class="node">
<title>ActivitiesDetailsPageComponent</title>
<polygon fill="#ffffb3" stroke="black" points="1163.14,-160.8 960.86,-160.8 960.86,-124.8 1163.14,-124.8 1163.14,-160.8"/>
<text text-anchor="middle" x="1062" y="-138.6" font-family="Times,serif" font-size="14.00">ActivitiesDetailsPageComponent</text>
</g>
<!-- ActivitiesDetailsPageComponent&#45;&gt;ActivitiesPageModule -->
<g id="edge4" class="edge">
<title>ActivitiesDetailsPageComponent&#45;&gt;ActivitiesPageModule</title>
<path fill="none" stroke="black" d="M1062,-160.82C1062,-178.17 1062,-201.8 1062,-201.8 1062,-201.8 848.79,-201.8 848.79,-201.8"/>
<polygon fill="black" stroke="black" points="848.79,-198.3 838.79,-201.8 848.79,-205.3 848.79,-198.3"/>
</g>
<!-- ActivitiesPageComponent -->
<g id="node6" class="node">
<title>ActivitiesPageComponent</title>
<polygon fill="#ffffb3" stroke="black" points="942.48,-160.8 779.52,-160.8 779.52,-124.8 942.48,-124.8 942.48,-160.8"/>
<text text-anchor="middle" x="861" y="-138.6" font-family="Times,serif" font-size="14.00">ActivitiesPageComponent</text>
</g>
<!-- ActivitiesPageComponent&#45;&gt;ActivitiesPageModule -->
<g id="edge5" class="edge">
<title>ActivitiesPageComponent&#45;&gt;ActivitiesPageModule</title>
<path fill="none" stroke="black" d="M809.06,-160.91C809.06,-160.91 809.06,-179.79 809.06,-179.79"/>
<polygon fill="black" stroke="black" points="805.56,-179.79 809.06,-189.79 812.56,-179.79 805.56,-179.79"/>
</g>
<!-- ActivitiesRoutingModule -->
<g id="node8" class="node">
<title>ActivitiesRoutingModule</title>
<polygon fill="#8dd3c7" stroke="black" points="755.6,-160.8 752.6,-164.8 731.6,-164.8 728.6,-160.8 596.4,-160.8 596.4,-124.8 755.6,-124.8 755.6,-160.8"/>
<text text-anchor="middle" x="676" y="-138.6" font-family="Times,serif" font-size="14.00">ActivitiesRoutingModule</text>
</g>
<!-- ActivitiesRoutingModule&#45;&gt;ActivitiesPageModule -->
<g id="edge7" class="edge">
<title>ActivitiesRoutingModule&#45;&gt;ActivitiesPageModule</title>
<path fill="none" stroke="black" d="M726.48,-160.91C726.48,-160.91 726.48,-179.79 726.48,-179.79"/>
<polygon fill="black" stroke="black" points="722.98,-179.79 726.48,-189.79 729.98,-179.79 722.98,-179.79"/>
</g>
<!-- AppComponent -->
<g id="node9" class="node">
<title>AppComponent</title>
<polygon fill="#ffffb3" stroke="black" points="1528.94,-160.8 1423.06,-160.8 1423.06,-124.8 1528.94,-124.8 1528.94,-160.8"/>
<text text-anchor="middle" x="1476" y="-138.6" font-family="Times,serif" font-size="14.00">AppComponent</text>
</g>
<!-- AppModule -->
<g id="node10" class="node">
<title>AppModule</title>
<polygon fill="#8dd3c7" stroke="black" points="1394.66,-225.8 1391.66,-229.8 1370.66,-229.8 1367.66,-225.8 1311.34,-225.8 1311.34,-189.8 1394.66,-189.8 1394.66,-225.8"/>
<text text-anchor="middle" x="1353" y="-203.6" font-family="Times,serif" font-size="14.00">AppModule</text>
</g>
<!-- AppComponent&#45;&gt;AppModule -->
<g id="edge8" class="edge">
<title>AppComponent&#45;&gt;AppModule</title>
<path fill="none" stroke="black" d="M1476,-161.09C1476,-183.01 1476,-216.8 1476,-216.8 1476,-216.8 1404.99,-216.8 1404.99,-216.8"/>
<polygon fill="black" stroke="black" points="1404.99,-213.3 1394.99,-216.8 1404.99,-220.3 1404.99,-213.3"/>
</g>
<!-- AppComponent  -->
<g id="node13" class="node">
<title>AppComponent </title>
<polygon fill="#80b1d3" stroke="black" points="1407.44,-293.8 1298.56,-293.8 1298.56,-257.8 1407.44,-257.8 1407.44,-293.8"/>
<text text-anchor="middle" x="1353" y="-271.6" font-family="Times,serif" font-size="14.00">AppComponent </text>
</g>
<!-- AppModule&#45;&gt;AppComponent  -->
<g id="edge11" class="edge">
<title>AppModule&#45;&gt;AppComponent </title>
<path fill="none" stroke="black" stroke-dasharray="1,5" d="M1353,-226.02C1353,-226.02 1353,-247.53 1353,-247.53"/>
<polygon fill="black" stroke="black" points="1349.5,-247.53 1353,-257.53 1356.5,-247.53 1349.5,-247.53"/>
</g>
<!-- CoreModule&#45;&gt;FireModule  -->
<g id="edge22" class="edge">
<title>CoreModule&#45;&gt;FireModule </title>
<path fill="none" stroke="black" stroke-dasharray="5,2" d="M1231.54,-161.01C1231.54,-166.35 1231.54,-170.8 1231.54,-170.8 1231.54,-170.8 409.4,-170.8 409.4,-170.8 409.4,-170.8 409.4,-179.73 409.4,-179.73"/>
<polygon fill="black" stroke="black" points="405.9,-179.73 409.4,-189.73 412.9,-179.73 405.9,-179.73"/>
</g>
<!-- CoreModule&#45;&gt;AppModule -->
<g id="edge9" class="edge">
<title>CoreModule&#45;&gt;AppModule</title>
<path fill="none" stroke="black" d="M1260.46,-161.08C1260.46,-182.12 1260.46,-213.8 1260.46,-213.8 1260.46,-213.8 1301.33,-213.8 1301.33,-213.8"/>
<polygon fill="black" stroke="black" points="1301.33,-217.3 1311.33,-213.8 1301.33,-210.3 1301.33,-217.3"/>
</g>
<!-- PagesModule -->
<g id="node12" class="node">
<title>PagesModule</title>
<polygon fill="#8dd3c7" stroke="black" points="1399.21,-160.8 1396.21,-164.8 1375.21,-164.8 1372.21,-160.8 1306.79,-160.8 1306.79,-124.8 1399.21,-124.8 1399.21,-160.8"/>
<text text-anchor="middle" x="1353" y="-138.6" font-family="Times,serif" font-size="14.00">PagesModule</text>
</g>
<!-- PagesModule&#45;&gt;AppModule -->
<g id="edge10" class="edge">
<title>PagesModule&#45;&gt;AppModule</title>
<path fill="none" stroke="black" d="M1353,-160.91C1353,-160.91 1353,-179.79 1353,-179.79"/>
<polygon fill="black" stroke="black" points="1349.5,-179.79 1353,-189.79 1356.5,-179.79 1349.5,-179.79"/>
</g>
<!-- FormFrameComponent -->
<g id="node14" class="node">
<title>FormFrameComponent</title>
<polygon fill="#ffffb3" stroke="black" points="1716.94,-84.8 1569.06,-84.8 1569.06,-48.8 1716.94,-48.8 1716.94,-84.8"/>
<text text-anchor="middle" x="1643" y="-62.6" font-family="Times,serif" font-size="14.00">FormFrameComponent</text>
</g>
<!-- FormFrameComponent&#45;&gt;AuthModule -->
<g id="edge12" class="edge">
<title>FormFrameComponent&#45;&gt;AuthModule</title>
<path fill="none" stroke="black" d="M1638.59,-84.81C1638.59,-84.81 1638.59,-114.65 1638.59,-114.65"/>
<polygon fill="black" stroke="black" points="1635.09,-114.65 1638.59,-124.65 1642.09,-114.65 1635.09,-114.65"/>
</g>
<!-- AuthModule&#45;&gt;FireModule  -->
<g id="edge14" class="edge">
<title>AuthModule&#45;&gt;FireModule </title>
<path fill="none" stroke="black" stroke-dasharray="5,2" d="M1609.41,-160.91C1609.41,-170.7 1609.41,-180.8 1609.41,-180.8 1609.41,-180.8 414.6,-180.8 414.6,-180.8 414.6,-180.8 414.6,-181.68 414.6,-181.68"/>
<polygon fill="black" stroke="black" points="411.1,-179.64 414.6,-189.64 418.1,-179.64 411.1,-179.64"/>
</g>
<!-- AuthPageModule -->
<g id="node20" class="node">
<title>AuthPageModule</title>
<polygon fill="#8dd3c7" stroke="black" points="2126.27,-225.8 2123.27,-229.8 2102.27,-229.8 2099.27,-225.8 2011.73,-225.8 2011.73,-189.8 2126.27,-189.8 2126.27,-225.8"/>
<text text-anchor="middle" x="2069" y="-203.6" font-family="Times,serif" font-size="14.00">AuthPageModule</text>
</g>
<!-- AuthModule&#45;&gt;AuthPageModule -->
<g id="edge19" class="edge">
<title>AuthModule&#45;&gt;AuthPageModule</title>
<path fill="none" stroke="black" d="M1638.59,-160.91C1638.59,-180.14 1638.59,-207.8 1638.59,-207.8 1638.59,-207.8 2001.4,-207.8 2001.4,-207.8"/>
<polygon fill="black" stroke="black" points="2001.4,-211.3 2011.4,-207.8 2001.4,-204.3 2001.4,-211.3"/>
</g>
<!-- AuthPageComponent -->
<g id="node16" class="node">
<title>AuthPageComponent</title>
<polygon fill="#ffffb3" stroke="black" points="2596.05,-160.8 2459.95,-160.8 2459.95,-124.8 2596.05,-124.8 2596.05,-160.8"/>
<text text-anchor="middle" x="2528" y="-138.6" font-family="Times,serif" font-size="14.00">AuthPageComponent</text>
</g>
<!-- AuthPageComponent&#45;&gt;AuthPageModule -->
<g id="edge15" class="edge">
<title>AuthPageComponent&#45;&gt;AuthPageModule</title>
<path fill="none" stroke="black" d="M2528,-161.08C2528,-182.12 2528,-213.8 2528,-213.8 2528,-213.8 2136.67,-213.8 2136.67,-213.8"/>
<polygon fill="black" stroke="black" points="2136.67,-210.3 2126.67,-213.8 2136.67,-217.3 2136.67,-210.3"/>
</g>
<!-- ForgetPasswordPageComponent -->
<g id="node17" class="node">
<title>ForgetPasswordPageComponent</title>
<polygon fill="#ffffb3" stroke="black" points="2441.27,-160.8 2242.73,-160.8 2242.73,-124.8 2441.27,-124.8 2441.27,-160.8"/>
<text text-anchor="middle" x="2342" y="-138.6" font-family="Times,serif" font-size="14.00">ForgetPasswordPageComponent</text>
</g>
<!-- ForgetPasswordPageComponent&#45;&gt;AuthPageModule -->
<g id="edge16" class="edge">
<title>ForgetPasswordPageComponent&#45;&gt;AuthPageModule</title>
<path fill="none" stroke="black" d="M2342,-160.82C2342,-178.17 2342,-201.8 2342,-201.8 2342,-201.8 2136.56,-201.8 2136.56,-201.8"/>
<polygon fill="black" stroke="black" points="2136.56,-198.3 2126.56,-201.8 2136.56,-205.3 2136.56,-198.3"/>
</g>
<!-- SigninPageComponent -->
<g id="node18" class="node">
<title>SigninPageComponent</title>
<polygon fill="#ffffb3" stroke="black" points="2224.61,-160.8 2079.39,-160.8 2079.39,-124.8 2224.61,-124.8 2224.61,-160.8"/>
<text text-anchor="middle" x="2152" y="-138.6" font-family="Times,serif" font-size="14.00">SigninPageComponent</text>
</g>
<!-- SigninPageComponent&#45;&gt;AuthPageModule -->
<g id="edge17" class="edge">
<title>SigninPageComponent&#45;&gt;AuthPageModule</title>
<path fill="none" stroke="black" d="M2102.91,-160.91C2102.91,-160.91 2102.91,-179.79 2102.91,-179.79"/>
<polygon fill="black" stroke="black" points="2099.41,-179.79 2102.91,-189.79 2106.41,-179.79 2099.41,-179.79"/>
</g>
<!-- SignupPageComponent -->
<g id="node19" class="node">
<title>SignupPageComponent</title>
<polygon fill="#ffffb3" stroke="black" points="2061.22,-160.8 1912.78,-160.8 1912.78,-124.8 2061.22,-124.8 2061.22,-160.8"/>
<text text-anchor="middle" x="1987" y="-138.6" font-family="Times,serif" font-size="14.00">SignupPageComponent</text>
</g>
<!-- SignupPageComponent&#45;&gt;AuthPageModule -->
<g id="edge18" class="edge">
<title>SignupPageComponent&#45;&gt;AuthPageModule</title>
<path fill="none" stroke="black" d="M2036.36,-160.91C2036.36,-160.91 2036.36,-179.79 2036.36,-179.79"/>
<polygon fill="black" stroke="black" points="2032.86,-179.79 2036.36,-189.79 2039.86,-179.79 2032.86,-179.79"/>
</g>
<!-- AuthRoutingModule -->
<g id="node21" class="node">
<title>AuthRoutingModule</title>
<polygon fill="#8dd3c7" stroke="black" points="1889.17,-160.8 1886.17,-164.8 1865.17,-164.8 1862.17,-160.8 1756.83,-160.8 1756.83,-124.8 1889.17,-124.8 1889.17,-160.8"/>
<text text-anchor="middle" x="1823" y="-138.6" font-family="Times,serif" font-size="14.00">AuthRoutingModule</text>
</g>
<!-- AuthRoutingModule&#45;&gt;AuthPageModule -->
<g id="edge20" class="edge">
<title>AuthRoutingModule&#45;&gt;AuthPageModule</title>
<path fill="none" stroke="black" d="M1823,-160.83C1823,-177.2 1823,-198.8 1823,-198.8 1823,-198.8 2001.63,-198.8 2001.63,-198.8"/>
<polygon fill="black" stroke="black" points="2001.63,-202.3 2011.63,-198.8 2001.63,-195.3 2001.63,-202.3"/>
</g>
<!-- MaterialModule&#45;&gt;FireModule  -->
<g id="edge26" class="edge">
<title>MaterialModule&#45;&gt;FireModule </title>
<path fill="none" stroke="black" stroke-dasharray="5,2" d="M69,-160.91C69,-180.14 69,-207.8 69,-207.8 69,-207.8 324.17,-207.8 324.17,-207.8"/>
<polygon fill="black" stroke="black" points="324.17,-211.3 334.17,-207.8 324.17,-204.3 324.17,-211.3"/>
</g>
<!-- AppPageComponent -->
<g id="node23" class="node">
<title>AppPageComponent</title>
<polygon fill="#ffffb3" stroke="black" points="1419.16,-84.8 1286.84,-84.8 1286.84,-48.8 1419.16,-48.8 1419.16,-84.8"/>
<text text-anchor="middle" x="1353" y="-62.6" font-family="Times,serif" font-size="14.00">AppPageComponent</text>
</g>
<!-- AppPageComponent&#45;&gt;PagesModule -->
<g id="edge27" class="edge">
<title>AppPageComponent&#45;&gt;PagesModule</title>
<path fill="none" stroke="black" d="M1353,-84.81C1353,-84.81 1353,-114.65 1353,-114.65"/>
<polygon fill="black" stroke="black" points="1349.5,-114.65 1353,-124.65 1356.5,-114.65 1349.5,-114.65"/>
</g>
<!-- SharedModule&#45;&gt;FireModule  -->
<g id="edge29" class="edge">
<title>SharedModule&#45;&gt;FireModule </title>
<path fill="none" stroke="black" stroke-dasharray="5,2" d="M244.34,-151.8C287.86,-151.8 344.42,-151.8 344.42,-151.8 344.42,-151.8 344.42,-179.77 344.42,-179.77"/>
<polygon fill="black" stroke="black" points="340.92,-179.77 344.42,-189.77 347.92,-179.77 340.92,-179.77"/>
</g>
</g>
</svg>
