<?xml version="1.0" encoding="UTF-8" standalone="no"?>
<!DOCTYPE svg PUBLIC "-//W3C//DTD SVG 1.1//EN"
 "http://www.w3.org/Graphics/SVG/1.1/DTD/svg11.dtd">
<!-- Generated by graphviz version 5.0.0 (20220707.1540)
 -->
<!-- Title: dependencies Pages: 1 -->
<svg width="318pt" height="247pt"
 viewBox="0.00 0.00 318.00 246.80" xmlns="http://www.w3.org/2000/svg" xmlns:xlink="http://www.w3.org/1999/xlink">
<g id="graph0" class="graph" transform="scale(1 1) rotate(0) translate(4 242.8)">
<title>dependencies</title>
<polygon fill="white" stroke="transparent" points="-4,4 -4,-242.8 314,-242.8 314,4 -4,4"/>
<text text-anchor="middle" x="155" y="-8.2" font-family="sans-serif" font-size="14.00">dependencies</text>
<g id="clust1" class="cluster">
<title>cluster_ActivitiesModule</title>
<polygon fill="none" stroke="black" stroke-dasharray="1,5" points="8,-32.8 8,-230.8 302,-230.8 302,-32.8 8,-32.8"/>
</g>
<g id="clust6" class="cluster">
<title>cluster_ActivitiesModule_providers</title>
<polygon fill="none" stroke="black" points="122,-40.8 122,-92.8 294,-92.8 294,-40.8 122,-40.8"/>
</g>
<g id="clust3" class="cluster">
<title>cluster_ActivitiesModule_imports</title>
<polygon fill="none" stroke="black" points="16,-40.8 16,-92.8 114,-92.8 114,-40.8 16,-40.8"/>
</g>
<g id="clust4" class="cluster">
<title>cluster_ActivitiesModule_exports</title>
<polygon fill="none" stroke="black" points="89,-170.8 89,-222.8 191,-222.8 191,-170.8 89,-170.8"/>
</g>
<!-- FireModule -->
<g id="node1" class="node">
<title>FireModule</title>
<polygon fill="#8dd3c7" stroke="black" points="106.1,-84.8 103.1,-88.8 82.1,-88.8 79.1,-84.8 23.9,-84.8 23.9,-48.8 106.1,-48.8 106.1,-84.8"/>
<text text-anchor="middle" x="65" y="-62.6" font-family="Times,serif" font-size="14.00">FireModule</text>
</g>
<!-- ActivitiesModule -->
<g id="node2" class="node">
<title>ActivitiesModule</title>
<polygon fill="#8dd3c7" stroke="black" points="196.99,-149.8 193.99,-153.8 172.99,-153.8 169.99,-149.8 83.01,-149.8 83.01,-113.8 196.99,-113.8 196.99,-149.8"/>
<text text-anchor="middle" x="140" y="-127.6" font-family="Times,serif" font-size="14.00">ActivitiesModule</text>
</g>
<!-- FireModule&#45;&gt;ActivitiesModule -->
<g id="edge1" class="edge">
<title>FireModule&#45;&gt;ActivitiesModule</title>
<path fill="none" stroke="black" d="M94.53,-84.91C94.53,-84.91 94.53,-103.79 94.53,-103.79"/>
<polygon fill="black" stroke="black" points="91.03,-103.79 94.53,-113.79 98.03,-103.79 91.03,-103.79"/>
</g>
<!-- FireModule  -->
<g id="node3" class="node">
<title>FireModule </title>
<polygon fill="#fb8072" stroke="black" points="182.6,-214.8 97.4,-214.8 97.4,-178.8 182.6,-178.8 182.6,-214.8"/>
<text text-anchor="middle" x="140" y="-192.6" font-family="Times,serif" font-size="14.00">FireModule </text>
</g>
<!-- ActivitiesModule&#45;&gt;FireModule  -->
<g id="edge2" class="edge">
<title>ActivitiesModule&#45;&gt;FireModule </title>
<path fill="none" stroke="black" stroke-dasharray="5,2" d="M140,-149.91C140,-149.91 140,-168.79 140,-168.79"/>
<polygon fill="black" stroke="black" points="136.5,-168.79 140,-178.79 143.5,-168.79 136.5,-168.79"/>
</g>
<!-- ActivitiesService -->
<g id="node4" class="node">
<title>ActivitiesService</title>
<ellipse fill="#fdb462" stroke="black" cx="208" cy="-66.8" rx="77.58" ry="18"/>
<text text-anchor="middle" x="208" y="-62.6" font-family="Times,serif" font-size="14.00">ActivitiesService</text>
</g>
<!-- ActivitiesService&#45;&gt;ActivitiesModule -->
<g id="edge3" class="edge">
<title>ActivitiesService&#45;&gt;ActivitiesModule</title>
<path fill="none" stroke="black" d="M163.73,-81.88C163.73,-81.88 163.73,-103.56 163.73,-103.56"/>
<polygon fill="black" stroke="black" points="160.23,-103.56 163.73,-113.56 167.23,-103.56 160.23,-103.56"/>
</g>
</g>
</svg>
