<?xml version="1.0" encoding="UTF-8" standalone="no"?>
<!DOCTYPE svg PUBLIC "-//W3C//DTD SVG 1.1//EN"
 "http://www.w3.org/Graphics/SVG/1.1/DTD/svg11.dtd">
<!-- Generated by graphviz version 5.0.0 (20220707.1540)
 -->
<!-- Title: dependencies Pages: 1 -->
<svg width="755pt" height="174pt"
 viewBox="0.00 0.00 755.00 173.80" xmlns="http://www.w3.org/2000/svg" xmlns:xlink="http://www.w3.org/1999/xlink">
<g id="graph0" class="graph" transform="scale(1 1) rotate(0) translate(4 169.8)">
<title>dependencies</title>
<polygon fill="white" stroke="transparent" points="-4,4 -4,-169.8 751,-169.8 751,4 -4,4"/>
<text text-anchor="middle" x="373.5" y="-8.2" font-family="sans-serif" font-size="14.00">dependencies</text>
<g id="clust1" class="cluster">
<title>cluster_ActivitiesPageModule</title>
<polygon fill="none" stroke="black" stroke-dasharray="1,5" points="8,-32.8 8,-157.8 739,-157.8 739,-32.8 8,-32.8"/>
</g>
<g id="clust5" class="cluster">
<title>cluster_ActivitiesPageModule_imports</title>
<polygon fill="none" stroke="black" points="423,-40.8 423,-92.8 731,-92.8 731,-40.8 423,-40.8"/>
</g>
<g id="clust2" class="cluster">
<title>cluster_ActivitiesPageModule_declarations</title>
<polygon fill="none" stroke="black" points="16,-40.8 16,-92.8 415,-92.8 415,-40.8 16,-40.8"/>
</g>
<!-- ActivitiesDetailsPageComponent -->
<g id="node1" class="node">
<title>ActivitiesDetailsPageComponent</title>
<polygon fill="#ffffb3" stroke="black" points="407.14,-84.8 204.86,-84.8 204.86,-48.8 407.14,-48.8 407.14,-84.8"/>
<text text-anchor="middle" x="306" y="-62.6" font-family="Times,serif" font-size="14.00">ActivitiesDetailsPageComponent</text>
</g>
<!-- ActivitiesPageModule -->
<g id="node3" class="node">
<title>ActivitiesPageModule</title>
<polygon fill="#8dd3c7" stroke="black" points="478.7,-149.8 475.7,-153.8 454.7,-153.8 451.7,-149.8 337.3,-149.8 337.3,-113.8 478.7,-113.8 478.7,-149.8"/>
<text text-anchor="middle" x="408" y="-127.6" font-family="Times,serif" font-size="14.00">ActivitiesPageModule</text>
</g>
<!-- ActivitiesDetailsPageComponent&#45;&gt;ActivitiesPageModule -->
<g id="edge1" class="edge">
<title>ActivitiesDetailsPageComponent&#45;&gt;ActivitiesPageModule</title>
<path fill="none" stroke="black" d="M372.36,-84.91C372.36,-84.91 372.36,-103.79 372.36,-103.79"/>
<polygon fill="black" stroke="black" points="368.86,-103.79 372.36,-113.79 375.86,-103.79 368.86,-103.79"/>
</g>
<!-- ActivitiesPageComponent -->
<g id="node2" class="node">
<title>ActivitiesPageComponent</title>
<polygon fill="#ffffb3" stroke="black" points="186.48,-84.8 23.52,-84.8 23.52,-48.8 186.48,-48.8 186.48,-84.8"/>
<text text-anchor="middle" x="105" y="-62.6" font-family="Times,serif" font-size="14.00">ActivitiesPageComponent</text>
</g>
<!-- ActivitiesPageComponent&#45;&gt;ActivitiesPageModule -->
<g id="edge2" class="edge">
<title>ActivitiesPageComponent&#45;&gt;ActivitiesPageModule</title>
<path fill="none" stroke="black" d="M105,-84.91C105,-104.14 105,-131.8 105,-131.8 105,-131.8 327.34,-131.8 327.34,-131.8"/>
<polygon fill="black" stroke="black" points="327.34,-135.3 337.34,-131.8 327.34,-128.3 327.34,-135.3"/>
</g>
<!-- ActivitiesModule -->
<g id="node4" class="node">
<title>ActivitiesModule</title>
<polygon fill="#8dd3c7" stroke="black" points="722.99,-84.8 719.99,-88.8 698.99,-88.8 695.99,-84.8 609.01,-84.8 609.01,-48.8 722.99,-48.8 722.99,-84.8"/>
<text text-anchor="middle" x="666" y="-62.6" font-family="Times,serif" font-size="14.00">ActivitiesModule</text>
</g>
<!-- ActivitiesModule&#45;&gt;ActivitiesPageModule -->
<g id="edge3" class="edge">
<title>ActivitiesModule&#45;&gt;ActivitiesPageModule</title>
<path fill="none" stroke="black" d="M666,-84.91C666,-104.14 666,-131.8 666,-131.8 666,-131.8 488.84,-131.8 488.84,-131.8"/>
<polygon fill="black" stroke="black" points="488.84,-128.3 478.84,-131.8 488.84,-135.3 488.84,-128.3"/>
</g>
<!-- ActivitiesRoutingModule -->
<g id="node5" class="node">
<title>ActivitiesRoutingModule</title>
<polygon fill="#8dd3c7" stroke="black" points="590.6,-84.8 587.6,-88.8 566.6,-88.8 563.6,-84.8 431.4,-84.8 431.4,-48.8 590.6,-48.8 590.6,-84.8"/>
<text text-anchor="middle" x="511" y="-62.6" font-family="Times,serif" font-size="14.00">ActivitiesRoutingModule</text>
</g>
<!-- ActivitiesRoutingModule&#45;&gt;ActivitiesPageModule -->
<g id="edge4" class="edge">
<title>ActivitiesRoutingModule&#45;&gt;ActivitiesPageModule</title>
<path fill="none" stroke="black" d="M455.02,-84.91C455.02,-84.91 455.02,-103.79 455.02,-103.79"/>
<polygon fill="black" stroke="black" points="451.52,-103.79 455.02,-113.79 458.52,-103.79 451.52,-103.79"/>
</g>
</g>
</svg>
