<?xml version="1.0" encoding="UTF-8" standalone="no"?>
<!DOCTYPE svg PUBLIC "-//W3C//DTD SVG 1.1//EN"
 "http://www.w3.org/Graphics/SVG/1.1/DTD/svg11.dtd">
<!-- Generated by graphviz version 5.0.0 (20220707.1540)
 -->
<!-- Title: dependencies Pages: 1 -->
<svg width="310pt" height="247pt"
 viewBox="0.00 0.00 310.00 246.80" xmlns="http://www.w3.org/2000/svg" xmlns:xlink="http://www.w3.org/1999/xlink">
<g id="graph0" class="graph" transform="scale(1 1) rotate(0) translate(4 242.8)">
<title>dependencies</title>
<polygon fill="white" stroke="transparent" points="-4,4 -4,-242.8 306,-242.8 306,4 -4,4"/>
<text text-anchor="middle" x="151" y="-8.2" font-family="sans-serif" font-size="14.00">dependencies</text>
<g id="clust1" class="cluster">
<title>cluster_AuthModule</title>
<polygon fill="none" stroke="black" stroke-dasharray="1,5" points="8,-32.8 8,-230.8 294,-230.8 294,-32.8 8,-32.8"/>
</g>
<g id="clust5" class="cluster">
<title>cluster_AuthModule_exports</title>
<polygon fill="none" stroke="black" points="115,-170.8 115,-222.8 217,-222.8 217,-170.8 115,-170.8"/>
</g>
<g id="clust4" class="cluster">
<title>cluster_AuthModule_imports</title>
<polygon fill="none" stroke="black" points="188,-40.8 188,-92.8 286,-92.8 286,-40.8 188,-40.8"/>
</g>
<g id="clust2" class="cluster">
<title>cluster_AuthModule_declarations</title>
<polygon fill="none" stroke="black" points="16,-40.8 16,-92.8 180,-92.8 180,-40.8 16,-40.8"/>
</g>
<!-- FormFrameComponent -->
<g id="node1" class="node">
<title>FormFrameComponent</title>
<polygon fill="#ffffb3" stroke="black" points="171.94,-84.8 24.06,-84.8 24.06,-48.8 171.94,-48.8 171.94,-84.8"/>
<text text-anchor="middle" x="98" y="-62.6" font-family="Times,serif" font-size="14.00">FormFrameComponent</text>
</g>
<!-- AuthModule -->
<g id="node2" class="node">
<title>AuthModule</title>
<polygon fill="#8dd3c7" stroke="black" points="209.55,-149.8 206.55,-153.8 185.55,-153.8 182.55,-149.8 122.45,-149.8 122.45,-113.8 209.55,-113.8 209.55,-149.8"/>
<text text-anchor="middle" x="166" y="-127.6" font-family="Times,serif" font-size="14.00">AuthModule</text>
</g>
<!-- FormFrameComponent&#45;&gt;AuthModule -->
<g id="edge1" class="edge">
<title>FormFrameComponent&#45;&gt;AuthModule</title>
<path fill="none" stroke="black" d="M146.97,-84.91C146.97,-84.91 146.97,-103.79 146.97,-103.79"/>
<polygon fill="black" stroke="black" points="143.47,-103.79 146.97,-113.79 150.47,-103.79 143.47,-103.79"/>
</g>
<!-- FireModule  -->
<g id="node4" class="node">
<title>FireModule </title>
<polygon fill="#fb8072" stroke="black" points="208.6,-214.8 123.4,-214.8 123.4,-178.8 208.6,-178.8 208.6,-214.8"/>
<text text-anchor="middle" x="166" y="-192.6" font-family="Times,serif" font-size="14.00">FireModule </text>
</g>
<!-- AuthModule&#45;&gt;FireModule  -->
<g id="edge3" class="edge">
<title>AuthModule&#45;&gt;FireModule </title>
<path fill="none" stroke="black" stroke-dasharray="5,2" d="M166,-149.91C166,-149.91 166,-168.79 166,-168.79"/>
<polygon fill="black" stroke="black" points="162.5,-168.79 166,-178.79 169.5,-168.79 162.5,-168.79"/>
</g>
<!-- FireModule -->
<g id="node3" class="node">
<title>FireModule</title>
<polygon fill="#8dd3c7" stroke="black" points="278.1,-84.8 275.1,-88.8 254.1,-88.8 251.1,-84.8 195.9,-84.8 195.9,-48.8 278.1,-48.8 278.1,-84.8"/>
<text text-anchor="middle" x="237" y="-62.6" font-family="Times,serif" font-size="14.00">FireModule</text>
</g>
<!-- FireModule&#45;&gt;AuthModule -->
<g id="edge2" class="edge">
<title>FireModule&#45;&gt;AuthModule</title>
<path fill="none" stroke="black" d="M202.86,-84.91C202.86,-84.91 202.86,-103.79 202.86,-103.79"/>
<polygon fill="black" stroke="black" points="199.36,-103.79 202.86,-113.79 206.36,-103.79 199.36,-103.79"/>
</g>
</g>
</svg>
