<?xml version="1.0" encoding="UTF-8" standalone="no"?>
<!DOCTYPE svg PUBLIC "-//W3C//DTD SVG 1.1//EN"
 "http://www.w3.org/Graphics/SVG/1.1/DTD/svg11.dtd">
<!-- Generated by graphviz version 5.0.0 (20220707.1540)
 -->
<!-- Title: dependencies Pages: 1 -->
<svg width="1001pt" height="174pt"
 viewBox="0.00 0.00 1001.00 173.80" xmlns="http://www.w3.org/2000/svg" xmlns:xlink="http://www.w3.org/1999/xlink">
<g id="graph0" class="graph" transform="scale(1 1) rotate(0) translate(4 169.8)">
<title>dependencies</title>
<polygon fill="white" stroke="transparent" points="-4,4 -4,-169.8 997,-169.8 997,4 -4,4"/>
<text text-anchor="middle" x="496.5" y="-8.2" font-family="sans-serif" font-size="14.00">dependencies</text>
<g id="clust1" class="cluster">
<title>cluster_AuthPageModule</title>
<polygon fill="none" stroke="black" stroke-dasharray="1,5" points="8,-32.8 8,-157.8 985,-157.8 985,-32.8 8,-32.8"/>
</g>
<g id="clust7" class="cluster">
<title>cluster_AuthPageModule_imports</title>
<polygon fill="none" stroke="black" points="723,-40.8 723,-92.8 977,-92.8 977,-40.8 723,-40.8"/>
</g>
<g id="clust2" class="cluster">
<title>cluster_AuthPageModule_declarations</title>
<polygon fill="none" stroke="black" points="16,-40.8 16,-92.8 715,-92.8 715,-40.8 16,-40.8"/>
</g>
<!-- AuthPageComponent -->
<g id="node1" class="node">
<title>AuthPageComponent</title>
<polygon fill="#ffffb3" stroke="black" points="707.05,-84.8 570.95,-84.8 570.95,-48.8 707.05,-48.8 707.05,-84.8"/>
<text text-anchor="middle" x="639" y="-62.6" font-family="Times,serif" font-size="14.00">AuthPageComponent</text>
</g>
<!-- AuthPageModule -->
<g id="node5" class="node">
<title>AuthPageModule</title>
<polygon fill="#8dd3c7" stroke="black" points="603.27,-149.8 600.27,-153.8 579.27,-153.8 576.27,-149.8 488.73,-149.8 488.73,-113.8 603.27,-113.8 603.27,-149.8"/>
<text text-anchor="middle" x="546" y="-127.6" font-family="Times,serif" font-size="14.00">AuthPageModule</text>
</g>
<!-- AuthPageComponent&#45;&gt;AuthPageModule -->
<g id="edge1" class="edge">
<title>AuthPageComponent&#45;&gt;AuthPageModule</title>
<path fill="none" stroke="black" d="M587.06,-84.91C587.06,-84.91 587.06,-103.79 587.06,-103.79"/>
<polygon fill="black" stroke="black" points="583.56,-103.79 587.06,-113.79 590.56,-103.79 583.56,-103.79"/>
</g>
<!-- ForgetPasswordPageComponent -->
<g id="node2" class="node">
<title>ForgetPasswordPageComponent</title>
<polygon fill="#ffffb3" stroke="black" points="552.27,-84.8 353.73,-84.8 353.73,-48.8 552.27,-48.8 552.27,-84.8"/>
<text text-anchor="middle" x="453" y="-62.6" font-family="Times,serif" font-size="14.00">ForgetPasswordPageComponent</text>
</g>
<!-- ForgetPasswordPageComponent&#45;&gt;AuthPageModule -->
<g id="edge2" class="edge">
<title>ForgetPasswordPageComponent&#45;&gt;AuthPageModule</title>
<path fill="none" stroke="black" d="M520.5,-84.91C520.5,-84.91 520.5,-103.79 520.5,-103.79"/>
<polygon fill="black" stroke="black" points="517,-103.79 520.5,-113.79 524,-103.79 517,-103.79"/>
</g>
<!-- SigninPageComponent -->
<g id="node3" class="node">
<title>SigninPageComponent</title>
<polygon fill="#ffffb3" stroke="black" points="335.61,-84.8 190.39,-84.8 190.39,-48.8 335.61,-48.8 335.61,-84.8"/>
<text text-anchor="middle" x="263" y="-62.6" font-family="Times,serif" font-size="14.00">SigninPageComponent</text>
</g>
<!-- SigninPageComponent&#45;&gt;AuthPageModule -->
<g id="edge3" class="edge">
<title>SigninPageComponent&#45;&gt;AuthPageModule</title>
<path fill="none" stroke="black" d="M263,-84.82C263,-102.17 263,-125.8 263,-125.8 263,-125.8 478.73,-125.8 478.73,-125.8"/>
<polygon fill="black" stroke="black" points="478.73,-129.3 488.73,-125.8 478.73,-122.3 478.73,-129.3"/>
</g>
<!-- SignupPageComponent -->
<g id="node4" class="node">
<title>SignupPageComponent</title>
<polygon fill="#ffffb3" stroke="black" points="172.22,-84.8 23.78,-84.8 23.78,-48.8 172.22,-48.8 172.22,-84.8"/>
<text text-anchor="middle" x="98" y="-62.6" font-family="Times,serif" font-size="14.00">SignupPageComponent</text>
</g>
<!-- SignupPageComponent&#45;&gt;AuthPageModule -->
<g id="edge4" class="edge">
<title>SignupPageComponent&#45;&gt;AuthPageModule</title>
<path fill="none" stroke="black" d="M98,-85.08C98,-106.12 98,-137.8 98,-137.8 98,-137.8 478.35,-137.8 478.35,-137.8"/>
<polygon fill="black" stroke="black" points="478.35,-141.3 488.35,-137.8 478.35,-134.3 478.35,-141.3"/>
</g>
<!-- AuthModule -->
<g id="node6" class="node">
<title>AuthModule</title>
<polygon fill="#8dd3c7" stroke="black" points="968.55,-84.8 965.55,-88.8 944.55,-88.8 941.55,-84.8 881.45,-84.8 881.45,-48.8 968.55,-48.8 968.55,-84.8"/>
<text text-anchor="middle" x="925" y="-62.6" font-family="Times,serif" font-size="14.00">AuthModule</text>
</g>
<!-- AuthModule&#45;&gt;AuthPageModule -->
<g id="edge5" class="edge">
<title>AuthModule&#45;&gt;AuthPageModule</title>
<path fill="none" stroke="black" d="M925,-85.08C925,-106.12 925,-137.8 925,-137.8 925,-137.8 613.56,-137.8 613.56,-137.8"/>
<polygon fill="black" stroke="black" points="613.56,-134.3 603.56,-137.8 613.56,-141.3 613.56,-134.3"/>
</g>
<!-- AuthRoutingModule -->
<g id="node7" class="node">
<title>AuthRoutingModule</title>
<polygon fill="#8dd3c7" stroke="black" points="863.17,-84.8 860.17,-88.8 839.17,-88.8 836.17,-84.8 730.83,-84.8 730.83,-48.8 863.17,-48.8 863.17,-84.8"/>
<text text-anchor="middle" x="797" y="-62.6" font-family="Times,serif" font-size="14.00">AuthRoutingModule</text>
</g>
<!-- AuthRoutingModule&#45;&gt;AuthPageModule -->
<g id="edge6" class="edge">
<title>AuthRoutingModule&#45;&gt;AuthPageModule</title>
<path fill="none" stroke="black" d="M797,-84.82C797,-102.17 797,-125.8 797,-125.8 797,-125.8 613.27,-125.8 613.27,-125.8"/>
<polygon fill="black" stroke="black" points="613.27,-122.3 603.27,-125.8 613.27,-129.3 613.27,-122.3"/>
</g>
</g>
</svg>
