<?xml version="1.0" encoding="UTF-8" standalone="no"?>
<!DOCTYPE svg PUBLIC "-//W3C//DTD SVG 1.1//EN"
 "http://www.w3.org/Graphics/SVG/1.1/DTD/svg11.dtd">
<!-- Generated by graphviz version 5.0.0 (20220707.1540)
 -->
<!-- Title: dependencies Pages: 1 -->
<svg width="156pt" height="182pt"
 viewBox="0.00 0.00 156.00 181.80" xmlns="http://www.w3.org/2000/svg" xmlns:xlink="http://www.w3.org/1999/xlink">
<g id="graph0" class="graph" transform="scale(1 1) rotate(0) translate(4 177.8)">
<title>dependencies</title>
<polygon fill="white" stroke="transparent" points="-4,4 -4,-177.8 152,-177.8 152,4 -4,4"/>
<text text-anchor="middle" x="74" y="-8.2" font-family="sans-serif" font-size="14.00">dependencies</text>
<g id="clust1" class="cluster">
<title>cluster_FireModule</title>
<polygon fill="none" stroke="black" stroke-dasharray="1,5" points="8,-32.8 8,-165.8 140,-165.8 140,-32.8 8,-32.8"/>
</g>
<g id="clust4" class="cluster">
<title>cluster_FireModule_exports</title>
<polygon fill="none" stroke="black" points="16,-105.8 16,-157.8 118,-157.8 118,-105.8 16,-105.8"/>
</g>
<g id="clust3" class="cluster">
<title>cluster_FireModule_imports</title>
<polygon fill="none" stroke="black" points="16,-40.8 16,-92.8 132,-92.8 132,-40.8 16,-40.8"/>
</g>
<!-- FireModule -->
<g id="node1" class="node">
<title>FireModule</title>
<polygon fill="#8dd3c7" stroke="black" points="106.1,-84.8 103.1,-88.8 82.1,-88.8 79.1,-84.8 23.9,-84.8 23.9,-48.8 106.1,-48.8 106.1,-84.8"/>
<text text-anchor="middle" x="65" y="-62.6" font-family="Times,serif" font-size="14.00">FireModule</text>
</g>
<!-- FireModule&#45;&gt;FireModule -->
<g id="edge1" class="edge">
<title>FireModule&#45;&gt;FireModule</title>
<path fill="none" stroke="black" d="M65,-48.38C65,-39.52 65,-30.8 65,-30.8 65,-30.8 5.95,-30.8 5.95,-30.8 5.95,-30.8 5.95,-99.8 5.95,-99.8 5.95,-99.8 51.48,-99.8 51.48,-99.8 51.48,-99.8 51.48,-94.84 51.48,-94.84"/>
<polygon fill="black" stroke="black" points="54.98,-94.84 51.48,-84.84 47.98,-94.84 54.98,-94.84"/>
</g>
<!-- FireModule  -->
<g id="node2" class="node">
<title>FireModule </title>
<polygon fill="#fb8072" stroke="black" points="109.6,-149.8 24.4,-149.8 24.4,-113.8 109.6,-113.8 109.6,-149.8"/>
<text text-anchor="middle" x="67" y="-127.6" font-family="Times,serif" font-size="14.00">FireModule </text>
</g>
<!-- FireModule&#45;&gt;FireModule  -->
<g id="edge2" class="edge">
<title>FireModule&#45;&gt;FireModule </title>
<path fill="none" stroke="black" stroke-dasharray="5,2" d="M78.77,-84.91C78.77,-84.91 78.77,-103.79 78.77,-103.79"/>
<polygon fill="black" stroke="black" points="75.27,-103.79 78.77,-113.79 82.27,-103.79 75.27,-103.79"/>
</g>
</g>
</svg>
